# xmcd
#
# Track frame offsets: 
#        150
#        15321
#        28544
#        49662
#        64980
#        80943
#        98719
#        119811
#        141771
#        156349
#        182912
#
# Disc length: 2686 seconds
#
# Revision: 2
# Processed by: cddbd v1.5.2PL0 Copyright (c) Steve Scherf et al.
# Submitted via: ExactAudioCopy v0.99pb5
#
DISCID=980a7c0b
DTITLE=R. L. Burnside - Sound Machine Groove
DYEAR=1997
DGENRE=Blues
TTITLE0=Shake, Little Baby
TTITLE1=Rolling and Tumbling
TTITLE2=Bad Luck City
TTITLE3=Going Down South
TTITLE4=Sound Machine Groove
TTITLE5=Sitting on Top of the World
TTITLE6=Begged for a Nickel
TTITLE7=Can't Let You Go
TTITLE8=Jumper Hanging Out on the Line
TTITLE9=Searching for My Baby
TTITLE10=Long Haired Doney
EXTD=
EXTT0=
EXTT1=
EXTT2=
EXTT3=
EXTT4=
EXTT5=
EXTT6=
EXTT7=
EXTT8=
EXTT9=
EXTT10=
PLAYORDER=
